<mxfile host="Electron" agent="Mozilla/5.0 (Windows NT 10.0; Win64; x64) AppleWebKit/537.36 (KHTML, like Gecko) draw.io/27.0.5 Chrome/134.0.6998.205 Electron/35.3.0 Safari/537.36" version="27.0.5">
  <diagram name="Страница — 1" id="HnActxMmPS7xU4tbSs8K">
    <mxGraphModel dx="1481" dy="716" grid="1" gridSize="10" guides="1" tooltips="1" connect="1" arrows="1" fold="1" page="0" pageScale="1" pageWidth="827" pageHeight="1169" math="0" shadow="0">
      <root>
        <mxCell id="0" />
        <mxCell id="1" parent="0" />
        <mxCell id="qft5tH1vOHiA7ZXkrPKI-34" value="Процесс сборки компьютера" style="swimlane;html=1;startSize=20;fontStyle=0;collapsible=0;horizontal=1;swimlaneLine=1;strokeWidth=2;swimlaneFillColor=#ffffff;whiteSpace=wrap;align=left;" parent="1" vertex="1">
          <mxGeometry x="200" y="280" width="3490" height="40" as="geometry" />
        </mxCell>
        <mxCell id="qft5tH1vOHiA7ZXkrPKI-35" value="Мастер" style="swimlane;html=1;startSize=20;fontStyle=0;collapsible=0;horizontal=0;swimlaneLine=1;swimlaneFillColor=#ffffff;strokeWidth=2;whiteSpace=wrap;" parent="1" vertex="1">
          <mxGeometry x="200" y="320" width="3490" height="410" as="geometry" />
        </mxCell>
        <mxCell id="qft5tH1vOHiA7ZXkrPKI-37" value="&lt;font size=&quot;1&quot;&gt;Заказ&lt;/font&gt;&lt;div&gt;&lt;font size=&quot;1&quot;&gt;клиента&lt;/font&gt;&lt;/div&gt;" style="points=[[0.145,0.145,0],[0.5,0,0],[0.855,0.145,0],[1,0.5,0],[0.855,0.855,0],[0.5,1,0],[0.145,0.855,0],[0,0.5,0]];shape=mxgraph.bpmn.event;html=1;verticalLabelPosition=bottom;labelBackgroundColor=#ffffff;verticalAlign=top;align=center;perimeter=ellipsePerimeter;outlineConnect=0;aspect=fixed;outline=standard;symbol=general;" parent="qft5tH1vOHiA7ZXkrPKI-35" vertex="1">
          <mxGeometry x="35" y="37.5" width="25" height="25" as="geometry" />
        </mxCell>
        <mxCell id="qft5tH1vOHiA7ZXkrPKI-44" style="edgeStyle=orthogonalEdgeStyle;rounded=0;orthogonalLoop=1;jettySize=auto;html=1;exitX=1;exitY=0.5;exitDx=0;exitDy=0;exitPerimeter=0;" parent="qft5tH1vOHiA7ZXkrPKI-35" source="qft5tH1vOHiA7ZXkrPKI-40" target="qft5tH1vOHiA7ZXkrPKI-42" edge="1">
          <mxGeometry relative="1" as="geometry" />
        </mxCell>
        <mxCell id="qft5tH1vOHiA7ZXkrPKI-40" value="Принять заказ клиента" style="points=[[0.25,0,0],[0.5,0,0],[0.75,0,0],[1,0.25,0],[1,0.5,0],[1,0.75,0],[0.75,1,0],[0.5,1,0],[0.25,1,0],[0,0.75,0],[0,0.5,0],[0,0.25,0]];shape=mxgraph.bpmn.task2;whiteSpace=wrap;rectStyle=rounded;size=10;html=1;container=1;expand=0;collapsible=0;taskMarker=abstract;" parent="qft5tH1vOHiA7ZXkrPKI-35" vertex="1">
          <mxGeometry x="150" y="25" width="90" height="50" as="geometry" />
        </mxCell>
        <mxCell id="qft5tH1vOHiA7ZXkrPKI-41" style="edgeStyle=orthogonalEdgeStyle;rounded=0;orthogonalLoop=1;jettySize=auto;html=1;exitX=1;exitY=0.5;exitDx=0;exitDy=0;exitPerimeter=0;entryX=0;entryY=0.5;entryDx=0;entryDy=0;entryPerimeter=0;" parent="qft5tH1vOHiA7ZXkrPKI-35" source="qft5tH1vOHiA7ZXkrPKI-37" target="qft5tH1vOHiA7ZXkrPKI-40" edge="1">
          <mxGeometry relative="1" as="geometry" />
        </mxCell>
        <mxCell id="qft5tH1vOHiA7ZXkrPKI-42" value="Подобрать необходимые компоненты" style="points=[[0.25,0,0],[0.5,0,0],[0.75,0,0],[1,0.25,0],[1,0.5,0],[1,0.75,0],[0.75,1,0],[0.5,1,0],[0.25,1,0],[0,0.75,0],[0,0.5,0],[0,0.25,0]];shape=mxgraph.bpmn.task2;whiteSpace=wrap;rectStyle=rounded;size=10;html=1;container=1;expand=0;collapsible=0;taskMarker=abstract;" parent="qft5tH1vOHiA7ZXkrPKI-35" vertex="1">
          <mxGeometry x="290" y="25" width="90" height="50" as="geometry" />
        </mxCell>
        <mxCell id="qft5tH1vOHiA7ZXkrPKI-45" style="edgeStyle=orthogonalEdgeStyle;rounded=0;orthogonalLoop=1;jettySize=auto;html=1;exitX=1;exitY=0.5;exitDx=0;exitDy=0;exitPerimeter=0;entryX=0;entryY=0.5;entryDx=0;entryDy=0;entryPerimeter=0;" parent="qft5tH1vOHiA7ZXkrPKI-35" source="vdZZEBa0CY6hvg-4VXfn-33" edge="1">
          <mxGeometry relative="1" as="geometry">
            <mxPoint x="470" y="50" as="targetPoint" />
          </mxGeometry>
        </mxCell>
        <mxCell id="qft5tH1vOHiA7ZXkrPKI-46" value="Распаковать компоненты" style="points=[[0.25,0,0],[0.5,0,0],[0.75,0,0],[1,0.25,0],[1,0.5,0],[1,0.75,0],[0.75,1,0],[0.5,1,0],[0.25,1,0],[0,0.75,0],[0,0.5,0],[0,0.25,0]];shape=mxgraph.bpmn.task2;whiteSpace=wrap;rectStyle=rounded;size=10;html=1;container=1;expand=0;collapsible=0;taskMarker=abstract;" parent="qft5tH1vOHiA7ZXkrPKI-35" vertex="1">
          <mxGeometry x="470" y="25" width="90" height="50" as="geometry" />
        </mxCell>
        <mxCell id="qft5tH1vOHiA7ZXkrPKI-48" value="Установить материнскую плату" style="points=[[0.25,0,0],[0.5,0,0],[0.75,0,0],[1,0.25,0],[1,0.5,0],[1,0.75,0],[0.75,1,0],[0.5,1,0],[0.25,1,0],[0,0.75,0],[0,0.5,0],[0,0.25,0]];shape=mxgraph.bpmn.task2;whiteSpace=wrap;rectStyle=rounded;size=10;html=1;container=1;expand=0;collapsible=0;taskMarker=abstract;" parent="qft5tH1vOHiA7ZXkrPKI-35" vertex="1">
          <mxGeometry x="1030" y="25" width="90" height="50" as="geometry" />
        </mxCell>
        <mxCell id="qft5tH1vOHiA7ZXkrPKI-50" value="Установить SSD" style="points=[[0.25,0,0],[0.5,0,0],[0.75,0,0],[1,0.25,0],[1,0.5,0],[1,0.75,0],[0.75,1,0],[0.5,1,0],[0.25,1,0],[0,0.75,0],[0,0.5,0],[0,0.25,0]];shape=mxgraph.bpmn.task2;whiteSpace=wrap;rectStyle=rounded;size=10;html=1;container=1;expand=0;collapsible=0;taskMarker=abstract;" parent="qft5tH1vOHiA7ZXkrPKI-35" vertex="1">
          <mxGeometry x="750" y="25" width="90" height="50" as="geometry" />
        </mxCell>
        <mxCell id="qft5tH1vOHiA7ZXkrPKI-51" value="Установить оперативную память" style="points=[[0.25,0,0],[0.5,0,0],[0.75,0,0],[1,0.25,0],[1,0.5,0],[1,0.75,0],[0.75,1,0],[0.5,1,0],[0.25,1,0],[0,0.75,0],[0,0.5,0],[0,0.25,0]];shape=mxgraph.bpmn.task2;whiteSpace=wrap;rectStyle=rounded;size=10;html=1;container=1;expand=0;collapsible=0;taskMarker=abstract;" parent="qft5tH1vOHiA7ZXkrPKI-35" vertex="1">
          <mxGeometry x="890" y="25" width="90" height="50" as="geometry" />
        </mxCell>
        <mxCell id="qft5tH1vOHiA7ZXkrPKI-53" style="edgeStyle=orthogonalEdgeStyle;rounded=0;orthogonalLoop=1;jettySize=auto;html=1;exitX=1;exitY=0.5;exitDx=0;exitDy=0;exitPerimeter=0;entryX=0;entryY=0.5;entryDx=0;entryDy=0;entryPerimeter=0;" parent="qft5tH1vOHiA7ZXkrPKI-35" source="qft5tH1vOHiA7ZXkrPKI-50" target="qft5tH1vOHiA7ZXkrPKI-51" edge="1">
          <mxGeometry relative="1" as="geometry" />
        </mxCell>
        <mxCell id="qft5tH1vOHiA7ZXkrPKI-58" style="edgeStyle=orthogonalEdgeStyle;rounded=0;orthogonalLoop=1;jettySize=auto;html=1;" parent="qft5tH1vOHiA7ZXkrPKI-35" target="qft5tH1vOHiA7ZXkrPKI-55" edge="1">
          <mxGeometry relative="1" as="geometry">
            <mxPoint x="1120" y="50" as="sourcePoint" />
          </mxGeometry>
        </mxCell>
        <mxCell id="qft5tH1vOHiA7ZXkrPKI-59" style="edgeStyle=orthogonalEdgeStyle;rounded=0;orthogonalLoop=1;jettySize=auto;html=1;" parent="qft5tH1vOHiA7ZXkrPKI-35" source="qft5tH1vOHiA7ZXkrPKI-55" target="qft5tH1vOHiA7ZXkrPKI-56" edge="1">
          <mxGeometry relative="1" as="geometry" />
        </mxCell>
        <mxCell id="qft5tH1vOHiA7ZXkrPKI-55" value="Установить DVD" style="points=[[0.25,0,0],[0.5,0,0],[0.75,0,0],[1,0.25,0],[1,0.5,0],[1,0.75,0],[0.75,1,0],[0.5,1,0],[0.25,1,0],[0,0.75,0],[0,0.5,0],[0,0.25,0]];shape=mxgraph.bpmn.task2;whiteSpace=wrap;rectStyle=rounded;size=10;html=1;container=1;expand=0;collapsible=0;taskMarker=abstract;" parent="qft5tH1vOHiA7ZXkrPKI-35" vertex="1">
          <mxGeometry x="1170" y="25" width="90" height="50" as="geometry" />
        </mxCell>
        <mxCell id="qft5tH1vOHiA7ZXkrPKI-56" value="Установить ОС" style="points=[[0.25,0,0],[0.5,0,0],[0.75,0,0],[1,0.25,0],[1,0.5,0],[1,0.75,0],[0.75,1,0],[0.5,1,0],[0.25,1,0],[0,0.75,0],[0,0.5,0],[0,0.25,0]];shape=mxgraph.bpmn.task2;whiteSpace=wrap;rectStyle=rounded;size=10;html=1;container=1;expand=0;collapsible=0;taskMarker=abstract;" parent="qft5tH1vOHiA7ZXkrPKI-35" vertex="1">
          <mxGeometry x="1310" y="25" width="90" height="50" as="geometry" />
        </mxCell>
        <mxCell id="qft5tH1vOHiA7ZXkrPKI-57" style="edgeStyle=orthogonalEdgeStyle;rounded=0;orthogonalLoop=1;jettySize=auto;html=1;entryX=0;entryY=0.5;entryDx=0;entryDy=0;entryPerimeter=0;" parent="qft5tH1vOHiA7ZXkrPKI-35" source="qft5tH1vOHiA7ZXkrPKI-51" edge="1">
          <mxGeometry relative="1" as="geometry">
            <mxPoint x="1030" y="50" as="targetPoint" />
          </mxGeometry>
        </mxCell>
        <mxCell id="vdZZEBa0CY6hvg-4VXfn-27" value="Проверить правильность сборки ПК" style="points=[[0.25,0,0],[0.5,0,0],[0.75,0,0],[1,0.25,0],[1,0.5,0],[1,0.75,0],[0.75,1,0],[0.5,1,0],[0.25,1,0],[0,0.75,0],[0,0.5,0],[0,0.25,0]];shape=mxgraph.bpmn.task2;whiteSpace=wrap;rectStyle=rounded;size=10;html=1;container=1;expand=0;collapsible=0;taskMarker=abstract;" parent="qft5tH1vOHiA7ZXkrPKI-35" vertex="1">
          <mxGeometry x="1590" y="130" width="90" height="50" as="geometry" />
        </mxCell>
        <mxCell id="qft5tH1vOHiA7ZXkrPKI-36" value="Контролер" style="swimlane;html=1;startSize=20;fontStyle=0;collapsible=0;horizontal=0;swimlaneLine=1;swimlaneFillColor=#ffffff;strokeWidth=2;whiteSpace=wrap;" parent="qft5tH1vOHiA7ZXkrPKI-35" vertex="1">
          <mxGeometry y="100" width="3490" height="310" as="geometry" />
        </mxCell>
        <mxCell id="vdZZEBa0CY6hvg-4VXfn-37" value="Проверить правильность сборки ПК&amp;nbsp;" style="points=[[0.25,0,0],[0.5,0,0],[0.75,0,0],[1,0.25,0],[1,0.5,0],[1,0.75,0],[0.75,1,0],[0.5,1,0],[0.25,1,0],[0,0.75,0],[0,0.5,0],[0,0.25,0]];shape=mxgraph.bpmn.task2;whiteSpace=wrap;rectStyle=rounded;size=10;html=1;container=1;expand=0;collapsible=0;taskMarker=abstract;" parent="qft5tH1vOHiA7ZXkrPKI-36" vertex="1">
          <mxGeometry x="2280" y="50" width="90" height="50" as="geometry" />
        </mxCell>
        <mxCell id="vdZZEBa0CY6hvg-4VXfn-43" value="Компьютер собран" style="points=[[0.145,0.145,0],[0.5,0,0],[0.855,0.145,0],[1,0.5,0],[0.855,0.855,0],[0.5,1,0],[0.145,0.855,0],[0,0.5,0]];shape=mxgraph.bpmn.event;html=1;verticalLabelPosition=bottom;labelBackgroundColor=#ffffff;verticalAlign=top;align=center;perimeter=ellipsePerimeter;outlineConnect=0;aspect=fixed;outline=end;symbol=terminate2;" parent="qft5tH1vOHiA7ZXkrPKI-36" vertex="1">
          <mxGeometry x="3150" y="20" width="50" height="50" as="geometry" />
        </mxCell>
        <mxCell id="vdZZEBa0CY6hvg-4VXfn-56" value="Вставить флешку с программой диагностики" style="points=[[0.25,0,0],[0.5,0,0],[0.75,0,0],[1,0.25,0],[1,0.5,0],[1,0.75,0],[0.75,1,0],[0.5,1,0],[0.25,1,0],[0,0.75,0],[0,0.5,0],[0,0.25,0]];shape=mxgraph.bpmn.task2;whiteSpace=wrap;rectStyle=rounded;size=10;html=1;container=1;expand=0;collapsible=0;taskMarker=abstract;" parent="qft5tH1vOHiA7ZXkrPKI-36" vertex="1">
          <mxGeometry x="2420" y="50" width="90" height="50" as="geometry" />
        </mxCell>
        <mxCell id="vdZZEBa0CY6hvg-4VXfn-62" style="edgeStyle=orthogonalEdgeStyle;rounded=0;orthogonalLoop=1;jettySize=auto;html=1;entryX=0;entryY=0.5;entryDx=0;entryDy=0;entryPerimeter=0;" parent="qft5tH1vOHiA7ZXkrPKI-36" source="vdZZEBa0CY6hvg-4VXfn-55" target="vdZZEBa0CY6hvg-4VXfn-71" edge="1">
          <mxGeometry relative="1" as="geometry">
            <mxPoint x="2690" y="50" as="targetPoint" />
          </mxGeometry>
        </mxCell>
        <mxCell id="vdZZEBa0CY6hvg-4VXfn-55" value="Выполнить диагностику собранного ПК" style="points=[[0.25,0,0],[0.5,0,0],[0.75,0,0],[1,0.25,0],[1,0.5,0],[1,0.75,0],[0.75,1,0],[0.5,1,0],[0.25,1,0],[0,0.75,0],[0,0.5,0],[0,0.25,0]];shape=mxgraph.bpmn.task2;whiteSpace=wrap;rectStyle=rounded;size=10;html=1;container=1;expand=0;collapsible=0;taskMarker=abstract;" parent="qft5tH1vOHiA7ZXkrPKI-36" vertex="1">
          <mxGeometry x="2540" y="50" width="90" height="50" as="geometry" />
        </mxCell>
        <mxCell id="vdZZEBa0CY6hvg-4VXfn-57" style="edgeStyle=orthogonalEdgeStyle;rounded=0;orthogonalLoop=1;jettySize=auto;html=1;entryX=0;entryY=0.5;entryDx=0;entryDy=0;entryPerimeter=0;" parent="qft5tH1vOHiA7ZXkrPKI-36" source="vdZZEBa0CY6hvg-4VXfn-37" target="vdZZEBa0CY6hvg-4VXfn-56" edge="1">
          <mxGeometry relative="1" as="geometry" />
        </mxCell>
        <mxCell id="vdZZEBa0CY6hvg-4VXfn-59" value="" style="edgeStyle=orthogonalEdgeStyle;rounded=0;orthogonalLoop=1;jettySize=auto;html=1;entryX=0;entryY=0.5;entryDx=0;entryDy=0;entryPerimeter=0;" parent="qft5tH1vOHiA7ZXkrPKI-36" source="vdZZEBa0CY6hvg-4VXfn-56" target="vdZZEBa0CY6hvg-4VXfn-55" edge="1">
          <mxGeometry relative="1" as="geometry">
            <mxPoint x="2710" y="470" as="sourcePoint" />
            <mxPoint x="2540" y="49.999999999999886" as="targetPoint" />
          </mxGeometry>
        </mxCell>
        <mxCell id="vdZZEBa0CY6hvg-4VXfn-73" style="edgeStyle=orthogonalEdgeStyle;rounded=0;orthogonalLoop=1;jettySize=auto;html=1;entryX=0;entryY=0.5;entryDx=0;entryDy=0;entryPerimeter=0;exitX=1;exitY=0.5;exitDx=0;exitDy=0;exitPerimeter=0;" parent="qft5tH1vOHiA7ZXkrPKI-36" source="t5a5wOHgAuFoFuFiJs8g-1" target="vdZZEBa0CY6hvg-4VXfn-74" edge="1">
          <mxGeometry relative="1" as="geometry">
            <mxPoint x="2730" y="160" as="targetPoint" />
            <Array as="points">
              <mxPoint x="2820" y="135" />
              <mxPoint x="2820" y="135" />
            </Array>
          </mxGeometry>
        </mxCell>
        <mxCell id="vdZZEBa0CY6hvg-4VXfn-71" value="" style="points=[[0.25,0.25,0],[0.5,0,0],[0.75,0.25,0],[1,0.5,0],[0.75,0.75,0],[0.5,1,0],[0.25,0.75,0],[0,0.5,0]];shape=mxgraph.bpmn.gateway2;html=1;verticalLabelPosition=bottom;labelBackgroundColor=#ffffff;verticalAlign=top;align=center;perimeter=rhombusPerimeter;outlineConnect=0;outline=standard;symbol=multiple;" parent="qft5tH1vOHiA7ZXkrPKI-36" vertex="1">
          <mxGeometry x="2690" y="50" width="50" height="50" as="geometry" />
        </mxCell>
        <mxCell id="vdZZEBa0CY6hvg-4VXfn-74" value="Отправить компютер на исправление ошибок" style="points=[[0.25,0,0],[0.5,0,0],[0.75,0,0],[1,0.25,0],[1,0.5,0],[1,0.75,0],[0.75,1,0],[0.5,1,0],[0.25,1,0],[0,0.75,0],[0,0.5,0],[0,0.25,0]];shape=mxgraph.bpmn.task2;whiteSpace=wrap;rectStyle=rounded;size=10;html=1;container=1;expand=0;collapsible=0;taskMarker=abstract;" parent="qft5tH1vOHiA7ZXkrPKI-36" vertex="1">
          <mxGeometry x="2880" y="110" width="90" height="50" as="geometry" />
        </mxCell>
        <mxCell id="t5a5wOHgAuFoFuFiJs8g-2" value="Менее10 минут" style="points=[[0.145,0.145,0],[0.5,0,0],[0.855,0.145,0],[1,0.5,0],[0.855,0.855,0],[0.5,1,0],[0.145,0.855,0],[0,0.5,0]];shape=mxgraph.bpmn.event;html=1;verticalLabelPosition=bottom;labelBackgroundColor=#ffffff;verticalAlign=top;align=center;perimeter=ellipsePerimeter;outlineConnect=0;aspect=fixed;outline=catching;symbol=timer;" vertex="1" parent="qft5tH1vOHiA7ZXkrPKI-36">
          <mxGeometry x="2760" y="20" width="50" height="50" as="geometry" />
        </mxCell>
        <mxCell id="t5a5wOHgAuFoFuFiJs8g-3" value="" style="edgeStyle=orthogonalEdgeStyle;rounded=0;orthogonalLoop=1;jettySize=auto;html=1;entryX=0;entryY=0.5;entryDx=0;entryDy=0;entryPerimeter=0;exitX=0.5;exitY=1;exitDx=0;exitDy=0;exitPerimeter=0;" edge="1" parent="qft5tH1vOHiA7ZXkrPKI-36" source="vdZZEBa0CY6hvg-4VXfn-71" target="t5a5wOHgAuFoFuFiJs8g-1">
          <mxGeometry relative="1" as="geometry">
            <mxPoint x="3080" y="555" as="targetPoint" />
            <mxPoint x="2915" y="520" as="sourcePoint" />
          </mxGeometry>
        </mxCell>
        <mxCell id="t5a5wOHgAuFoFuFiJs8g-1" value="Больше 10 минут" style="points=[[0.145,0.145,0],[0.5,0,0],[0.855,0.145,0],[1,0.5,0],[0.855,0.855,0],[0.5,1,0],[0.145,0.855,0],[0,0.5,0]];shape=mxgraph.bpmn.event;html=1;verticalLabelPosition=bottom;labelBackgroundColor=#ffffff;verticalAlign=top;align=center;perimeter=ellipsePerimeter;outlineConnect=0;aspect=fixed;outline=catching;symbol=timer;" vertex="1" parent="qft5tH1vOHiA7ZXkrPKI-36">
          <mxGeometry x="2760" y="110" width="50" height="50" as="geometry" />
        </mxCell>
        <mxCell id="t5a5wOHgAuFoFuFiJs8g-4" value="Отправить компютер на отгрузку" style="points=[[0.25,0,0],[0.5,0,0],[0.75,0,0],[1,0.25,0],[1,0.5,0],[1,0.75,0],[0.75,1,0],[0.5,1,0],[0.25,1,0],[0,0.75,0],[0,0.5,0],[0,0.25,0]];shape=mxgraph.bpmn.task2;whiteSpace=wrap;rectStyle=rounded;size=10;html=1;container=1;expand=0;collapsible=0;taskMarker=abstract;" vertex="1" parent="qft5tH1vOHiA7ZXkrPKI-36">
          <mxGeometry x="2880" y="20" width="90" height="50" as="geometry" />
        </mxCell>
        <mxCell id="t5a5wOHgAuFoFuFiJs8g-5" style="edgeStyle=orthogonalEdgeStyle;rounded=0;orthogonalLoop=1;jettySize=auto;html=1;exitX=0.5;exitY=0;exitDx=0;exitDy=0;exitPerimeter=0;entryX=0;entryY=0.5;entryDx=0;entryDy=0;entryPerimeter=0;" edge="1" parent="qft5tH1vOHiA7ZXkrPKI-36" source="vdZZEBa0CY6hvg-4VXfn-71" target="t5a5wOHgAuFoFuFiJs8g-2">
          <mxGeometry relative="1" as="geometry">
            <Array as="points">
              <mxPoint x="2715" y="45" />
            </Array>
          </mxGeometry>
        </mxCell>
        <mxCell id="t5a5wOHgAuFoFuFiJs8g-6" style="edgeStyle=orthogonalEdgeStyle;rounded=0;orthogonalLoop=1;jettySize=auto;html=1;exitX=1;exitY=0.5;exitDx=0;exitDy=0;exitPerimeter=0;entryX=0;entryY=0.5;entryDx=0;entryDy=0;entryPerimeter=0;" edge="1" parent="qft5tH1vOHiA7ZXkrPKI-36" source="t5a5wOHgAuFoFuFiJs8g-2" target="t5a5wOHgAuFoFuFiJs8g-4">
          <mxGeometry relative="1" as="geometry" />
        </mxCell>
        <mxCell id="t5a5wOHgAuFoFuFiJs8g-7" style="edgeStyle=orthogonalEdgeStyle;rounded=0;orthogonalLoop=1;jettySize=auto;html=1;exitX=1;exitY=0.5;exitDx=0;exitDy=0;exitPerimeter=0;entryX=0;entryY=0.5;entryDx=0;entryDy=0;entryPerimeter=0;" edge="1" parent="qft5tH1vOHiA7ZXkrPKI-36" source="t5a5wOHgAuFoFuFiJs8g-4" target="vdZZEBa0CY6hvg-4VXfn-43">
          <mxGeometry relative="1" as="geometry" />
        </mxCell>
        <mxCell id="vdZZEBa0CY6hvg-4VXfn-10" style="edgeStyle=orthogonalEdgeStyle;rounded=0;orthogonalLoop=1;jettySize=auto;html=1;exitX=1;exitY=0.5;exitDx=0;exitDy=0;exitPerimeter=0;" parent="qft5tH1vOHiA7ZXkrPKI-35" source="qft5tH1vOHiA7ZXkrPKI-60" target="vdZZEBa0CY6hvg-4VXfn-1" edge="1">
          <mxGeometry relative="1" as="geometry" />
        </mxCell>
        <mxCell id="vdZZEBa0CY6hvg-4VXfn-11" style="edgeStyle=orthogonalEdgeStyle;rounded=0;orthogonalLoop=1;jettySize=auto;html=1;exitX=1;exitY=0.5;exitDx=0;exitDy=0;exitPerimeter=0;entryX=0;entryY=0.5;entryDx=0;entryDy=0;entryPerimeter=0;" parent="qft5tH1vOHiA7ZXkrPKI-35" source="vdZZEBa0CY6hvg-4VXfn-1" target="vdZZEBa0CY6hvg-4VXfn-2" edge="1">
          <mxGeometry relative="1" as="geometry" />
        </mxCell>
        <mxCell id="vdZZEBa0CY6hvg-4VXfn-12" style="edgeStyle=orthogonalEdgeStyle;rounded=0;orthogonalLoop=1;jettySize=auto;html=1;exitX=1;exitY=0.5;exitDx=0;exitDy=0;exitPerimeter=0;entryX=0;entryY=0.5;entryDx=0;entryDy=0;entryPerimeter=0;" parent="qft5tH1vOHiA7ZXkrPKI-35" source="vdZZEBa0CY6hvg-4VXfn-2" target="vdZZEBa0CY6hvg-4VXfn-3" edge="1">
          <mxGeometry relative="1" as="geometry" />
        </mxCell>
        <mxCell id="qft5tH1vOHiA7ZXkrPKI-60" value="Установить дополнительное ПО" style="points=[[0.25,0,0],[0.5,0,0],[0.75,0,0],[1,0.25,0],[1,0.5,0],[1,0.75,0],[0.75,1,0],[0.5,1,0],[0.25,1,0],[0,0.75,0],[0,0.5,0],[0,0.25,0]];shape=mxgraph.bpmn.task2;whiteSpace=wrap;rectStyle=rounded;size=10;html=1;container=1;expand=0;collapsible=0;taskMarker=abstract;" parent="qft5tH1vOHiA7ZXkrPKI-35" vertex="1">
          <mxGeometry x="1450" y="25" width="90" height="50" as="geometry" />
        </mxCell>
        <mxCell id="vdZZEBa0CY6hvg-4VXfn-1" value="Выбрать необходимое ПО" style="points=[[0.25,0,0],[0.5,0,0],[0.75,0,0],[1,0.25,0],[1,0.5,0],[1,0.75,0],[0.75,1,0],[0.5,1,0],[0.25,1,0],[0,0.75,0],[0,0.5,0],[0,0.25,0]];shape=mxgraph.bpmn.task2;whiteSpace=wrap;rectStyle=rounded;size=10;html=1;container=1;expand=0;collapsible=0;taskMarker=abstract;" parent="qft5tH1vOHiA7ZXkrPKI-35" vertex="1">
          <mxGeometry x="1590" y="25" width="90" height="50" as="geometry" />
        </mxCell>
        <mxCell id="vdZZEBa0CY6hvg-4VXfn-2" value="Установить драйвера" style="points=[[0.25,0,0],[0.5,0,0],[0.75,0,0],[1,0.25,0],[1,0.5,0],[1,0.75,0],[0.75,1,0],[0.5,1,0],[0.25,1,0],[0,0.75,0],[0,0.5,0],[0,0.25,0]];shape=mxgraph.bpmn.task2;whiteSpace=wrap;rectStyle=rounded;size=10;html=1;container=1;expand=0;collapsible=0;taskMarker=abstract;" parent="qft5tH1vOHiA7ZXkrPKI-35" vertex="1">
          <mxGeometry x="1730" y="25" width="90" height="50" as="geometry" />
        </mxCell>
        <mxCell id="vdZZEBa0CY6hvg-4VXfn-3" value="Установить офисное ПО" style="points=[[0.25,0,0],[0.5,0,0],[0.75,0,0],[1,0.25,0],[1,0.5,0],[1,0.75,0],[0.75,1,0],[0.5,1,0],[0.25,1,0],[0,0.75,0],[0,0.5,0],[0,0.25,0]];shape=mxgraph.bpmn.task2;whiteSpace=wrap;rectStyle=rounded;size=10;html=1;container=1;expand=0;collapsible=0;taskMarker=abstract;" parent="qft5tH1vOHiA7ZXkrPKI-35" vertex="1">
          <mxGeometry x="1870" y="25" width="90" height="50" as="geometry" />
        </mxCell>
        <mxCell id="vdZZEBa0CY6hvg-4VXfn-4" value="Установить антивирусное ПО" style="points=[[0.25,0,0],[0.5,0,0],[0.75,0,0],[1,0.25,0],[1,0.5,0],[1,0.75,0],[0.75,1,0],[0.5,1,0],[0.25,1,0],[0,0.75,0],[0,0.5,0],[0,0.25,0]];shape=mxgraph.bpmn.task2;whiteSpace=wrap;rectStyle=rounded;size=10;html=1;container=1;expand=0;collapsible=0;taskMarker=abstract;" parent="qft5tH1vOHiA7ZXkrPKI-35" vertex="1">
          <mxGeometry x="2010" y="25" width="90" height="50" as="geometry" />
        </mxCell>
        <mxCell id="vdZZEBa0CY6hvg-4VXfn-13" style="edgeStyle=orthogonalEdgeStyle;rounded=0;orthogonalLoop=1;jettySize=auto;html=1;exitX=1;exitY=0.5;exitDx=0;exitDy=0;exitPerimeter=0;entryX=0;entryY=0.5;entryDx=0;entryDy=0;entryPerimeter=0;" parent="qft5tH1vOHiA7ZXkrPKI-35" source="vdZZEBa0CY6hvg-4VXfn-3" target="vdZZEBa0CY6hvg-4VXfn-4" edge="1">
          <mxGeometry relative="1" as="geometry" />
        </mxCell>
        <mxCell id="vdZZEBa0CY6hvg-4VXfn-6" value="Установить специализиро-ванное ПО" style="points=[[0.25,0,0],[0.5,0,0],[0.75,0,0],[1,0.25,0],[1,0.5,0],[1,0.75,0],[0.75,1,0],[0.5,1,0],[0.25,1,0],[0,0.75,0],[0,0.5,0],[0,0.25,0]];shape=mxgraph.bpmn.task2;whiteSpace=wrap;rectStyle=rounded;size=10;html=1;container=1;expand=0;collapsible=0;taskMarker=abstract;" parent="qft5tH1vOHiA7ZXkrPKI-35" vertex="1">
          <mxGeometry x="2150" y="25" width="90" height="50" as="geometry" />
        </mxCell>
        <mxCell id="vdZZEBa0CY6hvg-4VXfn-14" style="edgeStyle=orthogonalEdgeStyle;rounded=0;orthogonalLoop=1;jettySize=auto;html=1;exitX=1;exitY=0.5;exitDx=0;exitDy=0;exitPerimeter=0;entryX=0;entryY=0.5;entryDx=0;entryDy=0;entryPerimeter=0;" parent="qft5tH1vOHiA7ZXkrPKI-35" source="vdZZEBa0CY6hvg-4VXfn-4" target="vdZZEBa0CY6hvg-4VXfn-6" edge="1">
          <mxGeometry relative="1" as="geometry" />
        </mxCell>
        <mxCell id="vdZZEBa0CY6hvg-4VXfn-15" style="edgeStyle=orthogonalEdgeStyle;rounded=0;orthogonalLoop=1;jettySize=auto;html=1;exitX=1;exitY=0.5;exitDx=0;exitDy=0;exitPerimeter=0;entryX=0;entryY=0.5;entryDx=0;entryDy=0;entryPerimeter=0;" parent="qft5tH1vOHiA7ZXkrPKI-35" source="vdZZEBa0CY6hvg-4VXfn-6" target="vdZZEBa0CY6hvg-4VXfn-37" edge="1">
          <mxGeometry relative="1" as="geometry">
            <mxPoint x="2650" y="50" as="targetPoint" />
          </mxGeometry>
        </mxCell>
        <mxCell id="vdZZEBa0CY6hvg-4VXfn-33" value="" style="points=[[0.25,0.25,0],[0.5,0,0],[0.75,0.25,0],[1,0.5,0],[0.75,0.75,0],[0.5,1,0],[0.25,0.75,0],[0,0.5,0]];shape=mxgraph.bpmn.gateway2;html=1;verticalLabelPosition=bottom;labelBackgroundColor=#ffffff;verticalAlign=top;align=center;perimeter=rhombusPerimeter;outlineConnect=0;outline=none;symbol=none;gwType=exclusive;" parent="qft5tH1vOHiA7ZXkrPKI-35" vertex="1">
          <mxGeometry x="400" y="25" width="50" height="50" as="geometry" />
        </mxCell>
        <mxCell id="vdZZEBa0CY6hvg-4VXfn-34" value="" style="edgeStyle=orthogonalEdgeStyle;rounded=0;orthogonalLoop=1;jettySize=auto;html=1;exitX=1;exitY=0.5;exitDx=0;exitDy=0;exitPerimeter=0;entryX=0;entryY=0.5;entryDx=0;entryDy=0;entryPerimeter=0;" parent="qft5tH1vOHiA7ZXkrPKI-35" source="qft5tH1vOHiA7ZXkrPKI-42" target="vdZZEBa0CY6hvg-4VXfn-33" edge="1">
          <mxGeometry relative="1" as="geometry">
            <mxPoint x="580" y="370" as="sourcePoint" />
            <mxPoint x="670" y="370" as="targetPoint" />
          </mxGeometry>
        </mxCell>
        <mxCell id="vdZZEBa0CY6hvg-4VXfn-50" style="edgeStyle=orthogonalEdgeStyle;rounded=0;orthogonalLoop=1;jettySize=auto;html=1;exitX=1;exitY=0.5;exitDx=0;exitDy=0;exitPerimeter=0;entryX=0;entryY=0.5;entryDx=0;entryDy=0;entryPerimeter=0;" parent="qft5tH1vOHiA7ZXkrPKI-35" source="qft5tH1vOHiA7ZXkrPKI-56" target="qft5tH1vOHiA7ZXkrPKI-60" edge="1">
          <mxGeometry relative="1" as="geometry" />
        </mxCell>
        <mxCell id="vdZZEBa0CY6hvg-4VXfn-53" style="edgeStyle=orthogonalEdgeStyle;rounded=0;orthogonalLoop=1;jettySize=auto;html=1;" parent="qft5tH1vOHiA7ZXkrPKI-35" source="vdZZEBa0CY6hvg-4VXfn-51" target="qft5tH1vOHiA7ZXkrPKI-50" edge="1">
          <mxGeometry relative="1" as="geometry" />
        </mxCell>
        <mxCell id="vdZZEBa0CY6hvg-4VXfn-51" value="Установить процессор" style="points=[[0.25,0,0],[0.5,0,0],[0.75,0,0],[1,0.25,0],[1,0.5,0],[1,0.75,0],[0.75,1,0],[0.5,1,0],[0.25,1,0],[0,0.75,0],[0,0.5,0],[0,0.25,0]];shape=mxgraph.bpmn.task2;whiteSpace=wrap;rectStyle=rounded;size=10;html=1;container=1;expand=0;collapsible=0;taskMarker=abstract;" parent="qft5tH1vOHiA7ZXkrPKI-35" vertex="1">
          <mxGeometry x="610" y="25" width="90" height="50" as="geometry" />
        </mxCell>
        <mxCell id="vdZZEBa0CY6hvg-4VXfn-52" style="edgeStyle=orthogonalEdgeStyle;rounded=0;orthogonalLoop=1;jettySize=auto;html=1;entryX=0;entryY=0.5;entryDx=0;entryDy=0;entryPerimeter=0;" parent="qft5tH1vOHiA7ZXkrPKI-35" source="qft5tH1vOHiA7ZXkrPKI-46" target="vdZZEBa0CY6hvg-4VXfn-51" edge="1">
          <mxGeometry relative="1" as="geometry" />
        </mxCell>
        <mxCell id="vdZZEBa0CY6hvg-4VXfn-75" style="edgeStyle=orthogonalEdgeStyle;rounded=0;orthogonalLoop=1;jettySize=auto;html=1;exitX=1;exitY=0.5;exitDx=0;exitDy=0;exitPerimeter=0;entryX=0.5;entryY=1;entryDx=0;entryDy=0;entryPerimeter=0;" parent="qft5tH1vOHiA7ZXkrPKI-35" source="vdZZEBa0CY6hvg-4VXfn-74" target="vdZZEBa0CY6hvg-4VXfn-33" edge="1">
          <mxGeometry relative="1" as="geometry">
            <Array as="points">
              <mxPoint x="2990" y="235" />
              <mxPoint x="2990" y="300" />
              <mxPoint x="425" y="300" />
            </Array>
          </mxGeometry>
        </mxCell>
      </root>
    </mxGraphModel>
  </diagram>
</mxfile>
